<?xml version="1.0" encoding="UTF-8"?><svg id="Capa_2" xmlns="http://www.w3.org/2000/svg" viewBox="0 0 18.98 21"><defs><style>.cls-1{fill:#fff;stroke-width:0px;}</style></defs><g id="Capa_1-2"><path class="cls-1" d="m17.73,6.5H1.25l1.8,14.12c.03.22.21.38.43.38h12.01c.22,0,.41-.17.44-.38l1.8-14.12Zm-12.32,12.43h-.04c-.22,0-.41-.17-.43-.39l-.93-9.49c-.02-.24.15-.46.39-.48.24-.02.46.15.48.39l.93,9.49c.02.24-.15.45-.39.48m2.72,0h-.01c-.24,0-.43-.19-.44-.42l-.31-9.49c0-.24.18-.44.42-.45h.01c.24,0,.43.19.44.42l.31,9.49c0,.24-.18.44-.42.45m3.17-.42c0,.24-.2.42-.44.42h-.01c-.24,0-.43-.21-.42-.45l.31-9.49c0-.24.23-.43.45-.42.24,0,.43.21.43.45l-.31,9.49Zm2.74.03c-.02.22-.21.39-.43.39h-.04c-.24-.03-.42-.24-.39-.48l.93-9.49c.02-.24.24-.42.48-.39.24.03.42.24.39.48l-.93,9.49Z"/><path class="cls-1" d="m18.54,2.3h-5.6v-1.01c0-.71-.58-1.29-1.29-1.29h-4.31c-.71,0-1.29.58-1.29,1.29v1.01S.44,2.3.44,2.3c-.24,0-.44.2-.44.44v2.46c0,.24.2.44.44.44h18.1c.24,0,.44-.19.44-.44v-2.46c0-.24-.2-.44-.44-.44Zm-6.48,0h-5.14v-1.01c0-.23.18-.41.41-.41h4.31c.23,0,.42.18.42.41v1.01Z"/></g></svg>