<?xml version="1.0" encoding="utf-8"?>
<!-- Generator: Adobe Illustrator 27.9.0, SVG Export Plug-In . SVG Version: 6.00 Build 0)  -->
<svg version="1.1" id="Capa_1" xmlns="http://www.w3.org/2000/svg" xmlns:xlink="http://www.w3.org/1999/xlink" x="0px" y="0px"
	 viewBox="0 0 200 200" style="enable-background:new 0 0 200 200;" xml:space="preserve">
<style type="text/css">
	.st0{fill:#FFFFFF;}
</style>
<path class="st0" d="M182,106.5c-9.4-9.5-18.8-19-28.3-28.5c-1-1-1.4-1.9-1-3.4c1.6-5.6,3.1-11.2,4.6-16.8c2-7.4-1.5-13.4-8.8-15.4
	c-13.1-3.5-26.1-7.1-39.2-10.6c-1.1-0.3-1.5-0.8-1.8-1.8c-1.5-5.9-3.1-11.8-4.7-17.7C100.9,5.7,95,2.1,88.3,3.9
	C66.3,9.7,44.2,15.6,22.1,21.5c-6.8,1.8-10.2,7.8-8.3,14.7c8.4,31.8,16.9,63.6,25.3,95.4c0.7,2.5,1.8,4.7,3.7,6.4
	c0.4,0.4,0.8,0.8,0.9,1.4c0.5,2.9,2.3,5,4.2,7c14.6,14.6,29.3,29.1,43.9,43.6c2.9,2.9,5.6,6,9.6,7.3c1.4,0,2.8,0,4.2,0
	c3.6-0.9,6.1-3.4,8.6-5.9c5.9-6,11.9-11.9,17.8-17.8c16.6-16.6,33.1-33.1,49.7-49.7c1.7-1.7,3.2-3.6,3.8-6
	C186.8,113.4,185.2,109.7,182,106.5z M120.9,40.7c8.6,2.3,17.1,4.7,25.7,7c5.3,1.4,6.7,3.7,5.3,9c-8.5,31.6-17,63.2-25.5,94.8
	c-1.2,4.5-3.8,6-8.4,4.7c-11.1-3-22.1-6-33.1-9c-9-2.5-18.1-4.9-27.1-7.4c0-0.1,0-0.2-0.1-0.3c6.1-1.6,12.3-3.3,18.4-4.9
	c14.5-3.9,29.1-7.7,43.6-11.6c6.8-1.8,10.3-8.1,8.5-15c-6-22.8-12.1-45.5-18.1-68.2c-0.2-0.6-0.3-1.2-0.5-2.1
	C113.6,38.7,117.3,39.7,120.9,40.7z M51,135.3c-3.5,0-5.7-1.7-6.6-5.2c-6.6-24.9-13.2-49.8-19.8-74.6c-1.8-6.6-3.5-13.3-5.3-19.9
	c-1.5-5.5,0-8,5.6-9.5C46.5,20.3,68,14.6,89.6,8.9c3.8-1,6.8,0.7,7.8,4.5c8.6,32.4,17.2,64.7,25.8,97.1c0.8,3.2-0.8,5.9-4.4,6.9
	c-4,1.2-8,2.2-12,3.3c-18,4.8-36,9.5-54,14.3C52,135.2,51.4,135.3,51,135.3z M178.7,119.4c-23.2,23.2-46.4,46.4-69.6,69.6
	c-3.8,3.8-6.7,3.8-10.5,0.1c-14.4-14.3-28.8-28.5-43.1-42.8c-0.5-0.5-1-0.9-1.8-1.7c3.4,0.5,6.2,1.5,9.1,2.3
	c17.9,4.9,35.8,9.8,53.7,14.6c2.1,0.6,4.2,0.9,6.3,0.4c4.5-1.1,7.4-3.7,8.7-8.2c6.3-23.6,12.7-47.1,19.1-70.7
	c0.7-0.2,0.9,0.4,1.2,0.7c9,9.1,18,18.2,27,27.3C181.5,113.8,181.5,116.6,178.7,119.4z"/>
</svg>
