<?xml version="1.0" encoding="UTF-8"?><svg id="Capa_2" xmlns="http://www.w3.org/2000/svg" viewBox="0 0 24.13 39.63"><defs><style>.cls-1{fill:#fff;}.cls-1,.cls-2{stroke-width:0px;}.cls-2{fill:#ffc863;}</style></defs><g id="Capa_1-2"><polygon class="cls-2" points="9.9 9.47 14.6 7.97 18.15 10.95 16.73 7.13 18.9 6.24 16.01 5.2 14.16 .25 12.24 3.9 8.32 3.09 11.08 6.09 9.9 9.47"/><polygon class="cls-2" points="16.53 3.04 17.71 2.28 18.63 3.02 18.24 1.94 19.17 1.34 18.06 1.11 17.74 0 17.2 .93 15.61 .59 16.93 1.95 16.53 3.04"/><polygon class="cls-2" points="6.03 8.54 7.09 7.85 7.88 8.49 7.58 7.54 8.42 7 7.41 6.79 7.12 5.79 6.72 6.64 5.2 6.32 6.39 7.55 6.03 8.54"/><path class="cls-1" d="m23.98,15.72h.05c-.63-3.84-2.85-6.83-5.91-8.57l-.52.42,1.42,4.51-4.54-3.47-5.44,1.73,1.39-4.12-.42-.52c-.33.05-.55.09-.89.18-.52.13-.92.3-1.41.5.28.17,1.49.42,1.49.42l-.99.85.14,1.38-1.32-.52-1.56.83.42-1.63s-.07-.14-.28-.31C2.32,9.46.13,13.04,0,17.21c-.02.73.02,1.47.13,2.23h.03c.33,2.28,1.12,4.42,2.12,6.49,1.87,3.89,4.31,7.39,7.2,10.59.85.94,1.63,1.95,2.44,2.93v-15.06h5.6c2,0,3.61.59,4.48,1.74.51-1.12.96-2.27,1.32-3.47.68-2.27,1.03-4.57.65-6.94m-11.92,7.35c-2.73,0-4.97-2.02-5.37-4.65-.04-.28-.07-.57-.06-.87.01-3.03,2.45-5.47,5.46-5.47,2.72,0,4.99,2.02,5.39,4.66h0c.04.28.07.56.06.85,0,3.04-2.45,5.49-5.48,5.48"/><path class="cls-1" d="m12.69,25.36h5.02c2.73,0,4.64,1.28,4.64,3.73,0,1.2-.55,2.41-1.58,3.03v.04c1.57.5,2.14,1.96,2.14,3.21,0,3.11-2.48,4.25-5.19,4.25h-5.02v-14.27Zm5.06,5.53c.84,0,1.2-.64,1.2-1.32s-.36-1.22-1.26-1.22h-1.66v2.53h1.72Zm.29,5.75c.97,0,1.45-.7,1.45-1.5s-.46-1.46-1.43-1.46h-2.02v2.95h2Z"/></g></svg>