<?xml version="1.0" encoding="UTF-8"?><svg id="Capa_2" xmlns="http://www.w3.org/2000/svg" viewBox="0 0 113 75.75"><defs><style>.cls-1{fill:#03152b;}.cls-1,.cls-2,.cls-3{stroke-width:0px;}.cls-2{fill:#fff;}.cls-3{fill:#ffc863;}</style></defs><g id="Capa_1-2"><path class="cls-2" d="m37.93,21.05h7.4c3.46,0,5.81,2.54,5.81,6.13s-2.34,6.18-5.81,6.18h-3.04v5.51h-4.36v-17.82Zm6.51,8.57c1.52,0,2.27-1.02,2.27-2.44s-.75-2.39-2.19-2.39h-2.22v4.84h2.14Z"/><polygon class="cls-2" points="53.74 21.05 58.1 21.05 58.1 35.13 65.38 35.13 65.38 38.87 53.74 38.87 53.74 21.05"/><path class="cls-2" d="m77.42,35.13h-5.56l-1.07,3.74h-4.49l6.06-17.82h4.59l6.06,17.82h-4.49l-1.1-3.74Zm-2.79-10.02s-.4,1.94-.72,3.07l-1.02,3.46h3.52l-1-3.46c-.32-1.12-.72-3.07-.72-3.07h-.05Z"/><path class="cls-2" d="m84.99,21.05h4.41l4.94,8.33c.7,1.17,1.5,3.04,1.5,3.04h.05s-.2-1.92-.2-3.04v-8.33h4.36v17.82h-4.39l-4.96-8.3c-.7-1.17-1.49-3.04-1.49-3.04h-.05s.2,1.92.2,3.04v8.3h-4.36v-17.82Z"/><path class="cls-2" d="m42.96,41.52c4.82,0,8.35,3.57,8.35,8.15s-3.53,8.35-8.35,8.35-8.35-3.66-8.35-8.35,3.53-8.15,8.35-8.15m0,12.93c2.39,0,4.31-2.05,4.31-4.78s-1.92-4.58-4.31-4.58-4.31,1.97-4.31,4.58,1.92,4.78,4.31,4.78"/><path class="cls-2" d="m60.91,41.52c4.09,0,6.14,2.12,6.14,2.12l-1.88,2.93s-1.63-1.47-3.89-1.47c-3.35,0-4.71,2.14-4.71,4.51,0,3.04,2.1,4.85,4.58,4.85,1.88,0,3.24-1.16,3.24-1.16v-1.23h-2.26v-3.33h5.72v9.02h-3.26v-.45c0-.33.02-.67.02-.67h-.04s-1.54,1.39-4.2,1.39c-4.09,0-7.84-3.06-7.84-8.29,0-4.64,3.51-8.22,8.38-8.22"/><path class="cls-2" d="m77.58,41.52c4.82,0,8.35,3.57,8.35,8.15s-3.53,8.35-8.35,8.35-8.35-3.66-8.35-8.35,3.53-8.15,8.35-8.15m0,12.93c2.39,0,4.31-2.05,4.31-4.78s-1.92-4.58-4.31-4.58-4.31,1.97-4.31,4.58,1.92,4.78,4.31,4.78"/><polygon class="cls-2" points="90.8 45.13 85.96 45.13 85.96 41.78 99.56 41.78 99.56 45.13 94.71 45.13 94.71 57.75 90.8 57.75 90.8 45.13"/><path class="cls-2" d="m107.83,54.4h-4.98l-.96,3.35h-4.02l5.43-15.97h4.11l5.43,15.97h-4.02l-.98-3.35Zm-2.28-17h3.82l-2.64,3.35h-2.99l1.81-3.35Zm-.22,8.02s-.36,1.74-.65,2.75l-.92,3.1h3.15l-.89-3.1c-.29-1-.65-2.75-.65-2.75h-.04Z"/><polygon class="cls-3" points="14.41 13.78 21.24 11.59 26.41 15.93 24.33 10.37 27.5 9.08 23.29 7.57 20.6 .36 17.8 5.67 12.1 4.5 16.12 8.86 14.41 13.78"/><polygon class="cls-3" points="24.04 4.43 25.76 3.32 27.1 4.4 26.54 2.83 27.89 1.96 26.27 1.61 25.81 0 25.02 1.35 22.71 .85 24.63 2.83 24.04 4.43"/><polygon class="cls-3" points="8.77 12.42 10.32 11.42 11.46 12.36 11.02 10.98 12.24 10.19 10.78 9.88 10.36 8.42 9.78 9.67 7.56 9.19 9.3 10.98 8.77 12.42"/><path class="cls-2" d="m34.88,22.87h.07c-.91-5.58-4.14-9.93-8.6-12.46l-.76.6,2.07,6.56-6.61-5.04-7.92,2.52,2.02-6-.6-.76c-.48.08-.8.14-1.29.26-.76.19-1.33.44-2.06.73.4.25,2.16.62,2.16.62l-1.44,1.24.2,2-1.92-.76-2.27,1.21.6-2.37s-.1-.2-.41-.45C3.38,13.76.19,18.97,0,25.04c-.03,1.06.03,2.14.18,3.24h.04c.49,3.32,1.63,6.44,3.08,9.45,2.73,5.65,6.27,10.75,10.48,15.4,1.24,1.37,2.38,2.83,3.55,4.26v-21.91h8.15c2.91,0,5.25.86,6.51,2.53.75-1.63,1.4-3.31,1.92-5.05,1-3.3,1.49-6.65.95-10.1m-17.34,10.7c-3.97-.01-7.23-2.93-7.81-6.77-.06-.41-.09-.83-.09-1.26.02-4.4,3.56-7.96,7.94-7.96,3.96,0,7.25,2.94,7.84,6.78.06.41.09.82.09,1.25-.01,4.43-3.57,7.99-7.97,7.97"/><path class="cls-2" d="m18.46,36.89h7.3c3.97,0,6.75,1.86,6.75,5.43,0,1.74-.8,3.51-2.3,4.41v.06c2.28.73,3.11,2.85,3.11,4.68,0,4.53-3.61,6.19-7.55,6.19h-7.3v-20.77Zm7.36,8.04c1.22,0,1.75-.93,1.75-1.92s-.53-1.77-1.83-1.77h-2.42v3.69h2.5Zm.42,8.36c1.42,0,2.11-1.02,2.11-2.18s-.67-2.12-2.08-2.12h-2.94v4.3h2.92Z"/><path class="cls-3" d="m73.78,75.75h34.57c2.57,0,4.65-2.08,4.65-4.65v-11.73h-43.88v11.73c0,2.57,2.08,4.65,4.65,4.65"/><path class="cls-1" d="m75.24,72.46c-.71,0-1.3-.06-1.77-.18-.47-.12-.85-.31-1.13-.57-.28-.26-.48-.6-.6-1.02-.12-.42-.18-.94-.18-1.55v-1.03c0-.61.06-1.13.18-1.56.12-.43.32-.77.6-1.03.28-.26.66-.45,1.13-.57.47-.12,1.06-.18,1.77-.18h5.55v1.81h-5.48c-.33,0-.6.02-.81.07-.21.05-.38.13-.5.25-.12.12-.21.28-.25.49-.05.21-.07.47-.07.78v.91c0,.3.02.55.07.76.05.2.13.36.25.49.12.12.29.21.5.26.21.05.48.08.81.08h5.49v1.78h-5.56Z"/><path class="cls-1" d="m84.95,72.46c-.56,0-1.02-.05-1.37-.14-.36-.09-.64-.23-.86-.4s-.36-.39-.45-.64c-.08-.25-.13-.53-.13-.84v-.72c0-.32.04-.61.12-.86.08-.25.22-.46.42-.64.2-.17.47-.31.81-.4.34-.09.78-.13,1.31-.13h5.68v-.17c0-.49-.1-.82-.3-.98-.2-.17-.53-.25-1-.25h-2.1v-1.5h2.1c.61,0,1.13.06,1.56.17.43.11.78.29,1.05.52.27.23.47.52.6.88.13.35.19.78.19,1.27v1.87c0,.56-.05,1.02-.16,1.4-.11.38-.3.68-.57.92-.27.24-.63.4-1.08.5-.45.1-1.01.15-1.69.15h-4.15Zm5.53-3.47h-5.45c-.24,0-.44.05-.58.16-.14.11-.21.31-.21.62v.52c0,.27.08.46.23.57.15.1.36.16.64.16h3.96c.24,0,.46-.02.64-.06.18-.04.33-.11.44-.2.11-.1.2-.24.26-.42.06-.18.09-.41.09-.69v-.65Z"/><path class="cls-1" d="m94.12,72.46v-4.44c0-.57.07-1.06.2-1.47.13-.41.34-.74.63-1,.29-.26.66-.45,1.11-.57.45-.12,1.01-.18,1.66-.18h1.37v1.71h-1.32c-.29,0-.54.02-.74.07-.2.05-.36.13-.47.24-.12.11-.2.27-.25.47-.05.2-.08.45-.08.75v4.43h-2.11Z"/><path class="cls-1" d="m103.76,72.46c-.72,0-1.31-.06-1.79-.18-.48-.12-.86-.31-1.14-.57-.28-.26-.48-.6-.6-1.02-.12-.42-.18-.94-.18-1.55v-1.03c0-.61.06-1.13.18-1.56.12-.42.32-.77.6-1.03.28-.26.66-.45,1.14-.57.48-.12,1.07-.18,1.79-.18h4.26v-2.48h2.11v6.84c0,.61-.06,1.13-.18,1.55-.12.42-.32.76-.6,1.02-.28.26-.66.45-1.13.57-.47.12-1.07.18-1.78.18h-2.68Zm-1.6-3.37c0,.34.03.61.08.82.05.21.15.37.29.48.14.11.33.19.57.23.24.04.55.06.93.06h2.35c.33,0,.6-.02.81-.06.21-.04.38-.12.5-.24.12-.12.21-.28.26-.48.05-.2.07-.46.07-.78v-2.51h-4.01c-.37,0-.67.02-.91.06-.24.04-.43.11-.57.23-.14.11-.24.27-.29.48s-.08.48-.08.82v.91Z"/></g></svg>