<svg width="114" height="77" viewBox="0 0 114 77" fill="none" xmlns="http://www.w3.org/2000/svg">
<g clip-path="url(#clip0_25_2)">
<path d="M38.21 21.2H45.67C49.16 21.2 51.52 23.76 51.52 27.38C51.52 31 49.16 33.61 45.67 33.61H42.61V39.16H38.22V21.21L38.21 21.2ZM44.76 29.84C46.29 29.84 47.05 28.81 47.05 27.38C47.05 25.95 46.3 24.97 44.84 24.97H42.61V29.84H44.77H44.76Z" fill="#0F2C52"/>
<path d="M54.13 21.2H58.52V35.39H65.86V39.15H54.13V21.2Z" fill="#0F2C52"/>
<path d="M77.98 35.39H72.38L71.3 39.16H66.78L72.88 21.21H77.5L83.6 39.16H79.08L77.98 35.39ZM75.17 25.3C75.17 25.3 74.77 27.26 74.44 28.39L73.41 31.88H76.95L75.95 28.39C75.62 27.26 75.22 25.3 75.22 25.3H75.17Z" fill="#0F2C52"/>
<path d="M85.62 21.2H90.06L95.03 29.59C95.73 30.77 96.54 32.65 96.54 32.65H96.59C96.59 32.65 96.39 30.72 96.39 29.59V21.2H100.78V39.15H96.36L91.36 30.79C90.66 29.61 89.85 27.73 89.85 27.73H89.8C89.8 27.73 90 29.66 90 30.79V39.15H85.61V21.2H85.62Z" fill="#0F2C52"/>
<path d="M43.27 41.82C48.13 41.82 51.68 45.42 51.68 50.03C51.68 54.64 48.13 58.44 43.27 58.44C38.41 58.44 34.86 54.75 34.86 50.03C34.86 45.31 38.41 41.82 43.27 41.82ZM43.27 54.85C45.68 54.85 47.61 52.78 47.61 50.04C47.61 47.3 45.67 45.43 43.27 45.43C40.87 45.43 38.93 47.41 38.93 50.04C38.93 52.67 40.87 54.85 43.27 54.85Z" fill="#0F2C52"/>
<path d="M61.35 41.82C65.47 41.82 67.54 43.96 67.54 43.96L65.65 46.91C65.65 46.91 64.01 45.43 61.74 45.43C58.37 45.43 56.99 47.59 56.99 49.97C56.99 53.03 59.1 54.85 61.6 54.85C63.49 54.85 64.86 53.68 64.86 53.68V52.44H62.59V49.09H68.35V58.18H65.07V57.73C65.07 57.39 65.09 57.05 65.09 57.05H65.05C65.05 57.05 63.5 58.45 60.82 58.45C56.7 58.45 52.92 55.37 52.92 50.1C52.92 45.42 56.45 41.82 61.36 41.82" fill="#0F2C52"/>
<path d="M78.15 41.82C83.01 41.82 86.56 45.42 86.56 50.03C86.56 54.64 83.01 58.44 78.15 58.44C73.29 58.44 69.74 54.75 69.74 50.03C69.74 45.31 73.29 41.82 78.15 41.82ZM78.15 54.85C80.56 54.85 82.49 52.78 82.49 50.04C82.49 47.3 80.55 45.43 78.15 45.43C75.75 45.43 73.81 47.41 73.81 50.04C73.81 52.67 75.75 54.85 78.15 54.85Z" fill="#0F2C52"/>
<path d="M91.47 45.47H86.59V42.09H100.29V45.47H95.41V58.18H91.47V45.47Z" fill="#0F2C52"/>
<path d="M108.62 54.8H103.6L102.63 58.17H98.58L104.05 42.09H108.19L113.66 58.17H109.61L108.62 54.8ZM106.33 37.68H110.18L107.53 41.05H104.52L106.34 37.68H106.33ZM106.11 45.76C106.11 45.76 105.75 47.51 105.46 48.53L104.54 51.66H107.71L106.81 48.53C106.52 47.52 106.16 45.76 106.16 45.76H106.12H106.11Z" fill="#0F2C52"/>
<mask id="mask0_25_2" style="mask-type:luminance" maskUnits="userSpaceOnUse" x="12" y="0" width="16" height="17">
<path d="M17.93 5.71L12.19 4.53L16.24 8.92L14.51 13.88L21.4 11.67L26.6 16.04L24.51 10.45L27.7 9.14L23.46 7.63L20.75 0.369995L17.93 5.71Z" fill="white"/>
</mask>
<g mask="url(#mask0_25_2)">
<path d="M27.7 0.369995H12.19V16.05H27.7V0.369995Z" fill="url(#paint0_linear_25_2)"/>
</g>
<mask id="mask1_25_2" style="mask-type:luminance" maskUnits="userSpaceOnUse" x="22" y="0" width="7" height="5">
<path d="M25.21 1.36L22.88 0.86L24.81 2.85L24.22 4.46L25.95 3.35L27.3 4.43L26.73 2.85L28.1 1.97L26.47 1.62L26 0L25.21 1.36Z" fill="white"/>
</mask>
<g mask="url(#mask1_25_2)">
<path d="M28.1 0H22.88V4.46H28.1V0Z" fill="url(#paint1_linear_25_2)"/>
</g>
<mask id="mask2_25_2" style="mask-type:luminance" maskUnits="userSpaceOnUse" x="7" y="8" width="6" height="5">
<path d="M9.85 9.74001L7.62 9.26001L9.36 11.06L8.83 12.51L10.4 11.51L11.55 12.45L11.1 11.06L12.33 10.26L10.86 9.95001L10.44 8.48001L9.85 9.74001Z" fill="white"/>
</mask>
<g mask="url(#mask2_25_2)">
<path d="M12.33 8.48001H7.62V12.51H12.33V8.48001Z" fill="url(#paint2_linear_25_2)"/>
</g>
<path d="M35.14 23.03H35.21C34.29 17.41 31.04 13.02 26.55 10.48L25.79 11.09L27.87 17.69L21.22 12.61L13.24 15.15L15.27 9.1L14.66 8.34C14.17 8.42 13.85 8.48 13.36 8.6C12.59 8.79 12.02 9.04 11.29 9.33C11.7 9.58 13.47 9.95 13.47 9.95L12.02 11.2L12.22 13.22L10.29 12.46L8 13.68L8.61 11.29C8.61 11.29 8.51 11.09 8.2 10.84C3.4 13.86 0.2 19.11 4.16301e-07 25.22C-0.0299996 26.29 0.0300004 27.38 0.19 28.49H0.23C0.72 31.83 1.87 34.97 3.34 38C6.09 43.69 9.66 48.83 13.9 53.52C15.15 54.9 16.29 56.38 17.48 57.81V35.74H25.69C28.62 35.74 30.98 36.6 32.25 38.28C33 36.64 33.66 34.95 34.19 33.2C35.19 29.88 35.7 26.5 35.14 23.03ZM17.67 33.81C13.67 33.8 10.39 30.86 9.8 26.99C9.74 26.58 9.71 26.15 9.71 25.72C9.73 21.29 13.3 17.7 17.71 17.7C21.7 17.7 25.02 20.67 25.61 24.53C25.67 24.94 25.7 25.36 25.7 25.78C25.69 30.24 22.11 33.83 17.67 33.81Z" fill="#0F2C52"/>
<path d="M18.6 37.16H25.95C29.95 37.16 32.74 39.03 32.74 42.63C32.74 44.39 31.93 46.17 30.42 47.08V47.14C32.71 47.87 33.55 50.01 33.55 51.85C33.55 56.41 29.91 58.08 25.94 58.08H18.59V37.16H18.6ZM26.01 45.26C27.24 45.26 27.77 44.32 27.77 43.33C27.77 42.34 27.24 41.55 25.92 41.55H23.49V45.27H26.01V45.26ZM26.43 53.69C27.86 53.69 28.56 52.67 28.56 51.5C28.56 50.33 27.89 49.36 26.46 49.36H23.5V53.69H26.44H26.43Z" fill="#0F2C52"/>
<mask id="mask3_25_2" style="mask-type:luminance" maskUnits="userSpaceOnUse" x="69" y="59" width="45" height="18">
<path d="M69.63 59.81V71.62C69.63 74.21 71.73 76.31 74.32 76.31H109.14C111.73 76.31 113.83 74.21 113.83 71.62V59.81H69.63Z" fill="white"/>
</mask>
<g mask="url(#mask3_25_2)">
<path d="M113.83 59.81H69.63V76.31H113.83V59.81Z" fill="url(#paint3_linear_25_2)"/>
</g>
<path d="M75.79 72.99C75.08 72.99 74.48 72.93 74.01 72.81C73.53 72.69 73.15 72.5 72.87 72.24C72.58 71.98 72.38 71.64 72.26 71.21C72.14 70.79 72.08 70.27 72.08 69.65V68.61C72.08 67.99 72.14 67.47 72.26 67.04C72.38 66.61 72.58 66.27 72.87 66.01C73.16 65.75 73.54 65.56 74.01 65.44C74.49 65.32 75.08 65.26 75.79 65.26H81.38V67.08H75.86C75.53 67.08 75.25 67.1 75.04 67.15C74.83 67.2 74.66 67.28 74.53 67.4C74.41 67.52 74.32 67.68 74.27 67.89C74.22 68.1 74.2 68.36 74.2 68.67V69.58C74.2 69.88 74.22 70.14 74.27 70.34C74.32 70.54 74.4 70.71 74.53 70.83C74.65 70.95 74.82 71.04 75.04 71.09C75.25 71.14 75.53 71.17 75.86 71.17H81.39V72.97H75.79V72.99Z" fill="#0F2C52"/>
<path d="M85.57 72.99C85.01 72.99 84.55 72.94 84.19 72.85C83.83 72.76 83.54 72.62 83.33 72.44C83.12 72.26 82.97 72.05 82.88 71.8C82.79 71.55 82.75 71.27 82.75 70.95V70.22C82.75 69.9 82.79 69.61 82.87 69.36C82.95 69.11 83.09 68.89 83.29 68.72C83.49 68.54 83.76 68.41 84.11 68.32C84.46 68.23 84.9 68.18 85.43 68.18H91.15V68.01C91.15 67.52 91.05 67.19 90.85 67.02C90.65 66.85 90.31 66.77 89.84 66.77H87.73V65.26H89.84C90.46 65.26 90.98 65.32 91.42 65.43C91.85 65.54 92.21 65.72 92.48 65.95C92.76 66.18 92.96 66.48 93.09 66.83C93.22 67.19 93.28 67.61 93.28 68.11V69.99C93.28 70.55 93.23 71.02 93.12 71.4C93.01 71.78 92.82 72.09 92.55 72.33C92.28 72.57 91.92 72.74 91.47 72.84C91.02 72.94 90.45 72.99 89.77 72.99H85.59H85.57ZM91.14 69.5H85.65C85.4 69.5 85.21 69.55 85.07 69.66C84.93 69.77 84.86 69.98 84.86 70.28V70.81C84.86 71.09 84.94 71.28 85.09 71.38C85.24 71.48 85.46 71.54 85.73 71.54H89.72C89.97 71.54 90.18 71.52 90.36 71.48C90.54 71.44 90.69 71.37 90.8 71.27C90.91 71.17 91 71.03 91.06 70.85C91.12 70.67 91.15 70.44 91.15 70.15V69.49L91.14 69.5Z" fill="#0F2C52"/>
<path d="M94.83 72.99V68.51C94.83 67.93 94.9 67.44 95.03 67.03C95.16 66.62 95.37 66.29 95.66 66.02C95.95 65.76 96.32 65.57 96.78 65.44C97.24 65.32 97.79 65.25 98.45 65.25H99.83V66.98H98.5C98.21 66.98 97.96 67 97.76 67.05C97.56 67.1 97.4 67.18 97.28 67.29C97.16 67.4 97.08 67.56 97.02 67.76C96.97 67.96 96.94 68.21 96.94 68.52V72.98H94.82L94.83 72.99Z" fill="#0F2C52"/>
<path d="M104.55 72.99C103.83 72.99 103.23 72.93 102.75 72.81C102.27 72.69 101.89 72.5 101.6 72.24C101.31 71.98 101.11 71.64 100.99 71.21C100.87 70.79 100.81 70.27 100.81 69.65V68.61C100.81 67.99 100.87 67.47 100.99 67.04C101.11 66.61 101.31 66.27 101.6 66.01C101.89 65.75 102.27 65.56 102.75 65.44C103.23 65.32 103.83 65.26 104.55 65.26H108.84V62.76H110.96V69.65C110.96 70.27 110.9 70.79 110.78 71.21C110.66 71.63 110.46 71.98 110.17 72.24C109.88 72.5 109.5 72.69 109.03 72.81C108.55 72.93 107.96 72.99 107.23 72.99H104.54H104.55ZM102.94 69.6C102.94 69.94 102.97 70.22 103.02 70.43C103.07 70.64 103.17 70.8 103.31 70.91C103.45 71.02 103.65 71.1 103.89 71.14C104.13 71.18 104.44 71.2 104.82 71.2H107.19C107.52 71.2 107.8 71.18 108.01 71.14C108.22 71.1 108.39 71.02 108.52 70.9C108.64 70.78 108.73 70.62 108.78 70.42C108.83 70.22 108.85 69.95 108.85 69.63V67.11H104.82C104.45 67.11 104.14 67.13 103.9 67.17C103.66 67.21 103.47 67.28 103.32 67.4C103.17 67.52 103.08 67.68 103.03 67.88C102.98 68.09 102.95 68.36 102.95 68.71V69.62L102.94 69.6Z" fill="#0F2C52"/>
</g>
<defs>
<linearGradient id="paint0_linear_25_2" x1="13.9236" y1="13.7268" x2="29.6428" y2="13.7268" gradientUnits="userSpaceOnUse">
<stop stop-color="#DBAC40"/>
<stop offset="0.43" stop-color="#FFC363"/>
<stop offset="0.69" stop-color="#EAC476"/>
<stop offset="1" stop-color="#DFB045"/>
</linearGradient>
<linearGradient id="paint1_linear_25_2" x1="24.0967" y1="5.5684" x2="29.2759" y2="5.5684" gradientUnits="userSpaceOnUse">
<stop stop-color="#DBAC40"/>
<stop offset="0.43" stop-color="#FFC363"/>
<stop offset="0.69" stop-color="#EAC476"/>
<stop offset="1" stop-color="#DFB045"/>
</linearGradient>
<linearGradient id="paint2_linear_25_2" x1="8.0675" y1="11.645" x2="12.7475" y2="11.645" gradientUnits="userSpaceOnUse">
<stop stop-color="#DBAC40"/>
<stop offset="0.43" stop-color="#FFC363"/>
<stop offset="0.69" stop-color="#EAC476"/>
<stop offset="1" stop-color="#DFB045"/>
</linearGradient>
<linearGradient id="paint3_linear_25_2" x1="69.1244" y1="66.8798" x2="113.011" y2="66.8798" gradientUnits="userSpaceOnUse">
<stop stop-color="#DBAC40"/>
<stop offset="0.43" stop-color="#FFC363"/>
<stop offset="0.69" stop-color="#EAC476"/>
<stop offset="1" stop-color="#DFB045"/>
</linearGradient>
<clipPath id="clip0_25_2">
<rect width="113.83" height="76.31" fill="white"/>
</clipPath>
</defs>
</svg>
